<svg width="96" height="28" viewBox="0 0 96 28" fill="none" xmlns="http://www.w3.org/2000/svg">
<path d="M0.156 20V1.744H4.272V20H0.156ZM12.1339 20V5.216H7.12188V1.744H21.2899V5.216H16.2779V20H12.1339ZM36.6859 20.336C36.0699 20.336 35.4539 20.1867 34.8379 19.888C34.2219 19.5707 33.6339 19.1133 33.0739 18.516H32.9619L32.6259 20H29.4059V0.371999H33.5219V5.188L33.4099 7.316C33.9326 6.83067 34.5113 6.45733 35.1459 6.196C35.7806 5.916 36.4246 5.776 37.0779 5.776C38.1979 5.776 39.1686 6.06533 39.9899 6.644C40.8113 7.22267 41.4366 8.044 41.8659 9.108C42.3139 10.1533 42.5379 11.3853 42.5379 12.804C42.5379 14.3907 42.2579 15.7533 41.6979 16.892C41.1379 18.012 40.4099 18.8707 39.5139 19.468C38.6366 20.0467 37.6939 20.336 36.6859 20.336ZM35.7339 16.976C36.2006 16.976 36.6299 16.836 37.0219 16.556C37.4326 16.276 37.7499 15.8373 37.9739 15.24C38.1979 14.624 38.3099 13.84 38.3099 12.888C38.3099 12.048 38.2166 11.3573 38.0299 10.816C37.8619 10.256 37.6006 9.836 37.2459 9.556C36.8913 9.276 36.4433 9.136 35.9019 9.136C35.4913 9.136 35.0899 9.23867 34.6979 9.444C34.3246 9.63067 33.9326 9.948 33.5219 10.396V16.08C33.8766 16.3973 34.2499 16.6307 34.6419 16.78C35.0339 16.9107 35.3979 16.976 35.7339 16.976ZM51.4207 20.336C50.2447 20.336 49.1434 20.056 48.1167 19.496C47.0901 18.9173 46.2501 18.0867 45.5967 17.004C44.9621 15.9027 44.6447 14.5867 44.6447 13.056C44.6447 11.5253 44.9621 10.2187 45.5967 9.136C46.2501 8.03467 47.0901 7.204 48.1167 6.644C49.1434 6.06533 50.2447 5.776 51.4207 5.776C52.5781 5.776 53.6701 6.06533 54.6967 6.644C55.7234 7.204 56.5541 8.03467 57.1887 9.136C57.8421 10.2187 58.1687 11.5253 58.1687 13.056C58.1687 14.5867 57.8421 15.9027 57.1887 17.004C56.5541 18.0867 55.7234 18.9173 54.6967 19.496C53.6701 20.056 52.5781 20.336 51.4207 20.336ZM51.4207 17.004C51.9807 17.004 52.4474 16.8453 52.8207 16.528C53.2127 16.2107 53.5021 15.7533 53.6887 15.156C53.8754 14.5587 53.9687 13.8587 53.9687 13.056C53.9687 12.2533 53.8754 11.5533 53.6887 10.956C53.5021 10.3587 53.2127 9.90133 52.8207 9.584C52.4474 9.26667 51.9807 9.108 51.4207 9.108C50.8421 9.108 50.3661 9.26667 49.9927 9.584C49.6194 9.90133 49.3394 10.3587 49.1527 10.956C48.9661 11.5533 48.8727 12.2533 48.8727 13.056C48.8727 13.8587 48.9661 14.5587 49.1527 15.156C49.3394 15.7533 49.6194 16.2107 49.9927 16.528C50.3661 16.8453 50.8421 17.004 51.4207 17.004ZM66.952 20.336C65.776 20.336 64.6746 20.056 63.648 19.496C62.6213 18.9173 61.7813 18.0867 61.128 17.004C60.4933 15.9027 60.176 14.5867 60.176 13.056C60.176 11.5253 60.4933 10.2187 61.128 9.136C61.7813 8.03467 62.6213 7.204 63.648 6.644C64.6746 6.06533 65.776 5.776 66.952 5.776C68.1093 5.776 69.2013 6.06533 70.228 6.644C71.2546 7.204 72.0853 8.03467 72.72 9.136C73.3733 10.2187 73.7 11.5253 73.7 13.056C73.7 14.5867 73.3733 15.9027 72.72 17.004C72.0853 18.0867 71.2546 18.9173 70.228 19.496C69.2013 20.056 68.1093 20.336 66.952 20.336ZM66.952 17.004C67.512 17.004 67.9786 16.8453 68.352 16.528C68.744 16.2107 69.0333 15.7533 69.22 15.156C69.4066 14.5587 69.5 13.8587 69.5 13.056C69.5 12.2533 69.4066 11.5533 69.22 10.956C69.0333 10.3587 68.744 9.90133 68.352 9.584C67.9786 9.26667 67.512 9.108 66.952 9.108C66.3733 9.108 65.8973 9.26667 65.524 9.584C65.1506 9.90133 64.8706 10.3587 64.684 10.956C64.4973 11.5533 64.404 12.2533 64.404 13.056C64.404 13.8587 64.4973 14.5587 64.684 15.156C64.8706 15.7533 65.1506 16.2107 65.524 16.528C65.8973 16.8453 66.3733 17.004 66.952 17.004ZM76.5192 20V0.371999H80.5792V11.572H80.6912L85.0032 6.112H89.5112L84.6952 11.88L89.8752 20H85.4232L82.2872 14.596L80.5792 16.528V20H76.5192Z" fill="#333333"/>
</svg>
